<?xml version="1.0" encoding="iso-8859-1"?>
<!-- Generator: Adobe Illustrator 19.0.0, SVG Export Plug-In . SVG Version: 6.00 Build 0)  -->
<svg version="1.1" id="Capa_1" xmlns="http://www.w3.org/2000/svg" xmlns:xlink="http://www.w3.org/1999/xlink" x="0px" y="0px" width="80px" height="20px"
	 viewBox="0 0 2000 500" xml:space="preserve">
<g transform="translate(-20, -20) scale(15)" style="fill:#ff713b">
    <path d="M29.81,16H29V8.83a2,2,0,0,0-2-2H21A5.14,5.14,0,0,0,16.51,2,5,5,0,0,0,11,6.83H4a2,2,0,0,0-2,2V17H4.81A3.13,3.13,0,0,1,8,19.69,3,3,0,0,1,7.22,22,3,3,0,0,1,5,23H2v8.83a2,2,0,0,0,2,2H27a2,2,0,0,0,2-2V26h1a5,5,0,0,0,5-5.51A5.15,5.15,0,0,0,29.81,16Zm2.41,7A3,3,0,0,1,30,24H27v7.83H4V25H5a5,5,0,0,0,5-5.51A5.15,5.15,0,0,0,4.81,15H4V8.83h9V7a3,3,0,0,1,1-2.22A3,3,0,0,1,16.31,4,3.13,3.13,0,0,1,19,7.19V8.83h8V18h2.81A3.13,3.13,0,0,1,33,20.69,3,3,0,0,1,32.22,23Z"></path>
</g>
<g transform="translate(500, 0) scale(34)" style="fill:#3980ed">
  <path d="M3 2.5C3 2.22386 3.22386 2 3.5 2H9.08579C9.21839 2 9.34557 2.05268 9.43934 2.14645L11.8536 4.56066C11.9473 4.65443 12 4.78161 
  	12 4.91421V12.5C12 12.7761 11.7761 13 11.5 13H3.5C3.22386 13 3 12.7761 3 12.5V2.5ZM3.5 1C2.67157 1 2 1.67157 2 2.5V12.5C2 13.3284 
	2.67157 14 3.5 14H11.5C12.3284 14 13 13.3284 13 12.5V4.91421C13 4.51639 12.842 4.13486 12.5607 3.85355L10.1464 1.43934C9.86514 1.15804 
	9.48361 1 9.08579 1H3.5ZM4.5 4C4.22386 4 4 4.22386 4 4.5C4 4.77614 4.22386 5 4.5 5H7.5C7.77614 5 8 4.77614 8 4.5C8 4.22386 7.77614 4 
	7.5 4H4.5ZM4.5 7C4.22386 7 4 7.22386 4 7.5C4 7.77614 4.22386 8 4.5 8H10.5C10.7761 8 11 7.77614 11 7.5C11 7.22386 10.7761 7 10.5 7H4.5ZM4.5
	10C4.22386 10 4 10.2239 4 10.5C4 10.7761 4.22386 11 4.5 11H10.5C10.7761 11 11 10.7761 11 10.5C11 10.2239 10.7761 10 10.5 10H4.5Z"/>
</g>
<g transform="translate(1000, 0)" style="fill:#16a706">
	<path d="M192.5,0H20.8C9.4,0,0,9.4,0,20.8v171.7c0,11.4,9.4,20.8,20.8,20.8h171.7c11.4,0,20.8-9.4,20.8-20.8V20.8
		C213.3,9.4,203.9,0,192.5,0z M171.7,172.7H40.6V40.6h131.1L171.7,172.7L171.7,172.7z"/>
	<path d="M192.5,275.7H20.8C9.4,275.7,0,285.1,0,296.5v171.7C0,479.6,9.4,489,20.8,489h171.7c11.4,0,20.8-9.4,20.8-19.8V296.5
		C213.3,285.1,203.9,275.7,192.5,275.7z M171.7,448.4H40.6V316.3h131.1L171.7,448.4L171.7,448.4z"/>
	<path d="M262.2,126.9h206c11.4,0,20.8-9.4,20.8-20.8s-9.4-20.8-20.8-20.8h-206c-11.4,0-20.8,9.4-20.8,20.8
		C241.4,117.6,250.7,126.9,262.2,126.9z"/>
	<path d="M468.2,361h-206c-11.4,0-20.8,9.4-20.8,20.8s9.4,20.8,20.8,20.8h206c11.4,0,20.8-9.4,20.8-20.8S479.6,361,468.2,361z"/>
</g>
<g transform="translate(1500, 130)" style="fill:#67db5a">
	<path d="M192.5,0H20.8C9.4,0,0,9.4,0,20.8v171.7c0,11.4,9.4,20.8,20.8,20.8h171.7c11.4,0,20.8-9.4,20.8-20.8V20.8
		C213.3,9.4,203.9,0,192.5,0z M171.7,172.7H40.6V40.6h131.1L171.7,172.7L171.7,172.7z"/>
	<path d="M262.2,126.9h206c11.4,0,20.8-9.4,20.8-20.8s-9.4-20.8-20.8-20.8h-206c-11.4,0-20.8,9.4-20.8,20.8
		C241.4,117.6,250.7,126.9,262.2,126.9z"/>
</g></svg>
