<!-- Copyright 2000-2023 JetBrains s.r.o. and contributors. Use of this source code is governed by the Apache 2.0 license. -->
<svg width="14" height="14" viewBox="0 0 14 14" fill="none" xmlns="http://www.w3.org/2000/svg">
    <path 
          d="M8.68352 5.88125C9.3747 6.47944 9.3747 7.55148 8.68352 8.14967L3.48475 12.649C2.51318 13.4899 1.00313 12.7997 1.00313 11.5148L1.00313 2.51612C1.00313 1.23122 2.51318 0.541059 3.48475 1.38191L8.68352 5.88125ZM8.02911 7.39353C8.2595 7.19413 8.2595 6.83678 8.02911 6.63739L2.83034 2.13805C2.50648 1.85777 2.00313 2.08782 2.00313 2.51612L2.00313 11.5148C2.00313 11.9431 2.50648 12.1731 2.83034 11.8929L8.02911 7.39353Z"
          fill="#208A3C"/>
    <path d="M6.85715 1.5L12.3563 6.2593C12.8171 6.65809 12.8171 7.37279 12.3563 7.77158L6.89282 12.5" stroke="#208A3C"
          stroke-linecap="round" fill="none"/>
    <g transform="translate(-4 -1)">
        <circle cx="12.5" cy="11.5" r="3.5" fill="#E55765"/>
        <path d="M12.5 9C12.2239 9 12 9.22386 12 9.5V11.5C12 11.7761 12.2239 12 12.5 12C12.7761 12 13 11.7761 13 11.5V9.5C13 9.22386 12.7761 9 12.5 9Z"
              fill="white"/>
        <path d="M12.5 14C12.7761 14 13 13.7761 13 13.5C13 13.2239 12.7761 13 12.5 13C12.2239 13 12 13.2239 12 13.5C12 13.7761 12.2239 14 12.5 14Z"
              fill="white"/>
    </g>
</svg>
