<?xml version="1.0" encoding="iso-8859-1"?>
<!-- Generator: Adobe Illustrator 18.0.0, SVG Export Plug-In . SVG Version: 6.00 Build 0)  -->
<!DOCTYPE svg PUBLIC "-//W3C//DTD SVG 1.1//EN" "http://www.w3.org/Graphics/SVG/1.1/DTD/svg11.dtd">
<svg version="1.1" id="Capa_1" xmlns="http://www.w3.org/2000/svg" xmlns:xlink="http://www.w3.org/1999/xlink" x="0px" y="0px" width="20px" height="20px"
	 viewBox="0 0 50 50" style="enable-background:new 0 0 54 54;" xml:space="preserve">
	<rect x="4" y="4" rx="10" ry="10" width="42" height="42" style="fill:none;stroke:#999999;stroke-width:4"/>
	<g transform="translate(-2,-2)">
		<path style="fill:none;stroke:#999999;stroke-width:4;stroke-linecap:round;stroke-miterlimit:10;" d="M27.707,14.293c-0.391-0.391-1.023-0.391-1.414,0s-0.391,1.023,0,1.414L37.586,27L26.293,38.293
			c-0.391,0.391-0.391,1.023,0,1.414C26.488,39.902,26.744,40,27,40s0.512-0.098,0.707-0.293l11.498-11.498
			c0.667-0.667,0.667-1.751,0-2.418L27.707,14.293z"/>
		<path style="fill:none;stroke:#999999;stroke-width:4;stroke-linecap:round;stroke-miterlimit:10;" d="M29.205,25.791L17.707,14.293c-0.391-0.391-1.023-0.391-1.414,0s-0.391,1.023,0,1.414L27.586,27L16.293,38.293
			c-0.391,0.391-0.391,1.023,0,1.414C16.488,39.902,16.744,40,17,40s0.512-0.098,0.707-0.293l11.498-11.498
			C29.872,27.542,29.872,26.458,29.205,25.791z"/>
	</g>
</svg>
