<?xml version="1.0" standalone="no"?>
<!DOCTYPE svg PUBLIC "-//W3C//DTD SVG 20010904//EN" "http://www.w3.org/TR/2001/REC-SVG-20010904/DTD/svg10.dtd">
<!-- Created using Karbon, part of Calligra: http://www.calligra.org/karbon -->
<svg xmlns="http://www.w3.org/2000/svg" xmlns:xlink="http://www.w3.org/1999/xlink" width="32px" height="32px" viewBox="0 0 220 220">
<defs/>
<g id="layer0">
  <path id="shape0" transform="translate(0.798015, 2.47008)" fill="#bd1622" d="M57.2022 187.91C57.1994 187.981 57.1967 181.272 57.1967 174.492L57.1967 119.188C57.1967 112.407 52.984 100.314 48.7714 95.0011L2.46949 36.6066C-1.74317 31.2937 -0.388086 22.1113 5.17965 18.2417L24.7857 4.61562C30.3534 0.746071 39.9119 2.35807 43.9026 7.83962L75.6982 51.5135C79.6889 56.9951 87.6273 56.9639 91.5749 51.4513L124.249 5.82299C128.197 0.310318 137.986 -1.76085 143.829 1.68067L160.455 11.4753C166.297 14.9168 168.043 23.761 163.945 29.1637L116.576 91.6319C112.479 97.0346 108.375 109.218 108.368 115.998L108.309 174.207C108.302 180.988 101.514 187.768 94.7341 187.768L70.7682 187.768C63.9879 187.768 57.2049 187.839 57.2022 187.91Z"/>
  <path id="shape1" transform="translate(115.723, 103.541)" fill="#009540" d="M52.0747 115.779C52.0178 115.781 45.7401 115.846 39.627 114.823C33.1173 113.732 27.4367 111.714 22.585 108.764C14.8826 104.081 9.19356 97.1857 5.51804 88.0677C1.84251 78.9499 0 67.8677 0 54.8007L0 14.7984C0 7.91608 6.18683 1.03378 12.3737 1.03378L22.1682 1.03378C28.355 1.03378 34.4871 7.91582 34.4325 14.7978L34.2192 41.667C34.1646 48.5491 34.0078 58.2832 34.0167 61.1361C34.0192 61.9104 34.0474 62.6956 34.1265 63.6406C34.2722 65.3798 33.7986 75.1474 37.973 80.0346C38.1676 80.2624 38.3741 80.4827 38.5938 80.6959C38.9299 81.0219 44.5844 85.745 50.6576 86.1475C51.2518 86.1869 51.8749 86.207 52.5306 86.207C58.8654 86.207 63.8801 84.6667 67.2137 81.586C67.764 81.0775 68.2481 80.4688 68.6741 79.7835C72.1523 74.1886 71.943 63.3697 72.0603 60.1348C72.087 59.3996 72.0998 58.7109 72.1062 57.8823C72.1179 56.3364 71.9765 47.9097 71.841 41.029L71.3037 13.7613C71.1681 6.88065 77.2193 0 83.4061 0L91.263 0C97.4499 0 103.637 6.88231 103.637 13.7646L103.637 54.7904C103.637 62.0523 103.064 68.7145 101.923 74.7751C100.656 81.496 95.6848 94.3158 91.6227 99.4805C91.4395 99.7134 91.2542 99.9438 91.0667 100.172C86.909 105.229 75.8812 111.964 69.8985 113.609C68.1767 114.083 66.3845 114.478 64.5217 114.797C58.4112 115.84 52.1317 115.775 52.0747 115.779Z"/>
 </g>
</svg>
